<svg width="78" height="78" viewBox="0 0 78 78" fill="none" xmlns="http://www.w3.org/2000/svg">
<g id="propane">
<mask id="mask0_121_15" style="mask-type:alpha" maskUnits="userSpaceOnUse" x="0" y="0" width="78" height="78">
<rect id="Bounding box" width="78" height="78" fill="#D9D9D9"/>
</mask>
<g mask="url(#mask0_121_15)">
<path id="propane_2" d="M22.7501 52H55.2501C58.8251 52 61.8855 50.7271 64.4314 48.1812C66.9772 45.6354 68.2501 42.575 68.2501 39C68.2501 35.425 66.9772 32.3646 64.4314 29.8188C61.8855 27.2729 58.8251 26 55.2501 26H22.7501C19.1751 26 16.1147 27.2729 13.5689 29.8188C11.023 32.3646 9.75012 35.425 9.75012 39C9.75012 42.575 11.023 45.6354 13.5689 48.1812C16.1147 50.7271 19.1751 52 22.7501 52ZM32.5001 19.5H45.5001V16.25H32.5001V19.5ZM29.2501 58.5V65C29.2501 65.9208 28.9387 66.6927 28.3157 67.3156C27.6928 67.9385 26.921 68.25 26.0001 68.25C25.0793 68.25 24.3074 67.9385 23.6845 67.3156C23.0616 66.6927 22.7501 65.9208 22.7501 65V58.5C17.3335 58.5 12.7293 56.6042 8.93762 52.8125C5.14595 49.0208 3.25012 44.4167 3.25012 39C3.25012 33.5833 5.14595 28.9792 8.93762 25.1875C12.7293 21.3958 17.3335 19.5 22.7501 19.5H26.0001V16.25C26.0001 14.4625 26.6366 12.9323 27.9095 11.6594C29.1824 10.3865 30.7126 9.75 32.5001 9.75H45.5001C47.2876 9.75 48.8178 10.3865 50.0907 11.6594C51.3637 12.9323 52.0001 14.4625 52.0001 16.25V19.5H55.2501C60.6668 19.5 65.271 21.3958 69.0626 25.1875C72.8543 28.9792 74.7501 33.5833 74.7501 39C74.7501 44.4167 72.8543 49.0208 69.0626 52.8125C65.271 56.6042 60.6668 58.5 55.2501 58.5V65C55.2501 65.9208 54.9387 66.6927 54.3157 67.3156C53.6928 67.9385 52.921 68.25 52.0001 68.25C51.0793 68.25 50.3074 67.9385 49.6845 67.3156C49.0616 66.6927 48.7501 65.9208 48.7501 65V58.5H29.2501Z" fill="#1C1B1F" fill-opacity="0.1"/>
</g>
</g>
</svg>
